<?xml version="1.0" encoding="UTF-8" standalone="no"?>
<!-- Created with Inkscape (http://www.inkscape.org/) -->

<svg
   width="850"
   height="850"
   viewBox="0 0 224.89583 224.89584"
   version="1.1"
   id="svg1"
   xml:space="preserve"
   xmlns="http://www.w3.org/2000/svg"
   xmlns:svg="http://www.w3.org/2000/svg"><defs
     id="defs1" /><g
     id="layer1"><path
       style="display:inline;fill:#511b57"
       d="m 93.482935,116.49003 -0.56769,-0.0809 -0.38681,-0.44824 c -0.21275,-0.24653 -3.00569,-5.09168 -6.20653,-10.76699 -3.20085,-5.675314 -7.463384,-13.216044 -9.472304,-16.757174 l -3.652584,-6.438417 0.53932,-1.1022 c 0.97961,-2.00201 18.268068,-32.307877 18.854258,-33.050647 l 0.57422,-0.7276 h 19.376195 19.37618 l 0.43526,0.33073 0.43527,0.33072 7.05378,12.435417 c 3.8796,6.83948 8.1346,14.3387 9.45556,16.66494 l 2.40176,4.22953 -0.0229,0.80864 -0.0229,0.80864 -9.45767,16.602127 -9.45767,16.602124 -0.49318,0.26394 -0.49318,0.26395 -18.85033,0.0562 c -10.36769,0.0309 -19.105805,0.0198 -19.418025,-0.0247 z m 32.163345,-2.01216 c -0.0606,-0.0598 -5.80476,-1.55509 -12.76469,-3.32288 l -12.65444,-3.21417 -0.698805,0.0817 -0.6988,0.0817 -1.22042,1.98437 c -0.67123,1.09141 -1.54945,2.54992 -1.95159,3.24115 l -0.73116,1.25677 h 15.415065 c 8.47829,0 15.36547,-0.0489 15.30484,-0.10871 z m -30.439085,-4.10395 1.88613,-3.15432 v -0.42188 -0.42188 l -8.36354,-8.660774 c -8.965674,-9.28432 -9.626084,-9.94165 -9.806714,-9.76102 -0.0646,0.0646 2.84541,5.33926 6.466794,11.72138 3.62137,6.382124 6.86508,12.109874 7.20823,12.728344 0.76537,1.3794 0.40106,1.66283 2.6091,-2.02985 z m 35.187825,2.80058 0.29359,-0.35375 3.06302,-13.167184 c 1.68466,-7.24195 2.99922,-13.23099 2.92123,-13.30897 -0.11671,-0.11671 -16.47317,9.08902 -31.47362,17.713954 l -3.40346,1.95691 0.0143,0.24725 0.0144,0.24726 13.84016,3.48483 c 15.53356,3.91123 14.33754,3.65306 14.73039,3.1797 z m 5.48116,-6.59157 c 1.41745,-2.51023 5.00496,-8.834254 7.97225,-14.053384 l 5.39507,-9.48932 -0.15097,-0.15097 -0.15096,-0.150967 -4.61803,1.012617 -4.61804,1.01262 -0.38827,0.42902 -0.38827,0.42903 -2.92615,12.42154 c -2.81086,11.932074 -3.06259,13.103884 -2.81498,13.103884 0.0611,0 1.27091,-2.05383 2.68835,-4.56407 z m -25.25475,-7.804894 c 5.58366,-3.18746 13.57634,-7.73436 17.76151,-10.10421 4.18517,-2.36986 7.66564,-4.39981 7.73437,-4.51101 l 0.12495,-0.20218 -2.3104,-1.408767 c -1.27073,-0.77482 -9.21603,-5.6515 -17.65624,-10.83707 -8.44021,-5.18556 -15.61373,-9.57122 -15.94115,-9.7459 l -0.595315,-0.31761 v 21.601157 21.601164 l 0.365085,-0.1401 c 0.2008,-0.077 4.93353,-2.74801 10.51719,-5.935474 z m -13.062055,-26.175787 -0.0692,-10.49891 -10.38489,9.99431 c -5.711704,5.49687 -10.384904,10.11878 -10.384904,10.2709 0,0.15212 1.5799,1.897237 3.51089,3.878037 1.931,1.98079 6.604204,6.80053 10.384904,10.71053 l 6.874,7.109084 0.0692,-10.482524 c 0.038,-5.76539 0.038,-15.207027 0,-20.981427 z m 47.158945,9.27337 c 2.4011,-0.52944 4.40195,-0.99277 4.44635,-1.02963 0.10024,-0.0832 -14.43793,-25.827537 -14.78101,-26.174307 l -0.24868,-0.25135 v 0.39633 c 0,0.49739 4.72032,27.238597 4.88765,27.689187 l 0.12283,0.330727 0.60361,8.2e-4 c 0.33199,4.5e-4 2.56815,-0.432347 4.96925,-0.961777 z m -10.5954,-15.90994 -2.69567,-15.011387 -0.25013,-0.31157 -0.25013,-0.31157 -1.37257,0.40564 c -0.75491,0.22311 -6.49225,2.07547 -12.74965,4.11635 -6.25739,2.04088 -12.15098,3.94657 -13.09687,4.23487 -0.94589,0.2883 -1.9371,0.63896 -2.20269,0.77924 l -0.48291,0.255057 12.52145,7.68671 c 6.88679,4.2277 14.90269,9.15759 17.81311,10.95532 l 5.29166,3.2686 0.085,-0.52793 0.085,-0.52793 z m -46.724615,3.26965 c 5.31858,-5.07959 9.73291,-9.399207 9.80964,-9.599157 l 0.1395,-0.36354 -1.86495,-4.02158 c -1.02572,-2.21186 -1.98868,-4.17065 -2.1399,-4.35287 l -0.27495,-0.33129 -4.02566,7.07286 C 81.693501,70.550609 77.383051,78.167749 77.282641,78.420059 l -0.0992,0.24933 0.27238,-0.0992 c 0.1498,-0.0546 4.62393,-4.25525 9.942504,-9.33484 z M 112.71072,54.253092 c 7.19945,-2.333 13.47685,-4.3663 13.94979,-4.51844 l 0.8599,-0.27661 v -0.24407 -0.24406 H 111.24853 94.976655 v 0.38774 c 0,0.89801 4.00801,9.13726 4.44485,9.13726 0.10963,0 6.089775,-1.90882 13.289215,-4.24182 z"
       id="path36" /><path
       style="font-weight:bold;font-size:29.6865px;font-family:Commissioner;-inkscape-font-specification:'Commissioner Bold';fill:#8c4a91;stroke-width:3.19072"
       d="m 23.96004,156.49098 q 0,-1.70697 0,-3.31004 0,-1.60307 0,-3.59207 v -7.18413 q 0,-2.04837 0,-3.69597 0,-1.6476 0,-3.38426 1.291363,0 3.458477,0 2.181958,0 5.031862,0 2.567882,0 4.289699,0.63826 1.736661,0.63826 2.597569,2.10774 0.875752,1.45464 0.875752,3.91862 0,2.09289 -0.742163,3.69597 -0.742162,1.58822 -2.404606,2.49366 -1.662444,0.8906 -4.393602,0.8906 -0.72732,0 -1.558542,0 -0.816378,0 -1.603071,0 -0.786692,0 -1.350735,0 v -3.71082 h 3.399104 q 1.276519,0 2.092898,-0.34139 0.816379,-0.3414 1.202303,-1.05387 0.400768,-0.72732 0.400768,-1.87025 0,-0.90544 -0.282022,-1.48433 -0.267178,-0.57888 -0.727319,-0.89059 -0.460141,-0.31171 -1.024184,-0.43046 -0.5492,-0.13358 -1.113244,-0.13358 h -5.670121 l 2.33039,-3.05771 q 0,1.73666 0,3.38426 0,1.6476 0,3.69597 v 6.41228 q 0,1.989 0,3.59207 0,1.60307 0,3.31004 z m 26.005322,0.38593 q -1.321049,0 -2.716314,-0.22265 -1.380423,-0.20781 -2.597569,-0.5492 -1.202303,-0.3414 -1.959309,-0.71248 l 0.356238,-4.2897 q 1.024184,0.57889 2.137428,0.9945 1.128087,0.40077 2.241331,0.62342 1.128087,0.22265 2.152271,0.22265 1.024184,0 1.78119,-0.25234 0.757006,-0.25234 1.172617,-0.75701 0.415611,-0.51951 0.415611,-1.33589 0,-0.83122 -0.5492,-1.36558 -0.534357,-0.5492 -1.543698,-0.94997 -1.009342,-0.41561 -2.404607,-0.81637 -1.929623,-0.56405 -3.295202,-1.30621 -1.365579,-0.75701 -2.092898,-1.92962 -0.712476,-1.18746 -0.712476,-3.04287 0,-1.85541 0.816379,-3.26551 0.816379,-1.42496 2.463979,-2.22649 1.647601,-0.80154 4.170954,-0.80154 0.994498,0 1.988995,0.13359 0.994498,0.11875 1.929623,0.32655 0.949968,0.20781 1.751503,0.47499 0.801536,0.26718 1.395266,0.56404 l -0.371081,4.30454 q -0.949968,-0.59373 -1.974153,-0.99449 -1.024184,-0.40077 -2.003838,-0.60858 -0.979655,-0.2078 -1.78119,-0.2078 -0.905439,0 -1.647601,0.23749 -0.72732,0.23749 -1.157774,0.72732 -0.430454,0.48983 -0.430454,1.23199 0,0.72732 0.400768,1.23199 0.415611,0.48983 1.261676,0.87575 0.860908,0.37108 2.211644,0.77185 2.538196,0.757 4.007678,1.58823 1.469482,0.81638 2.078055,1.97415 0.623416,1.15777 0.623416,2.90928 0,1.94446 -0.846065,3.3991 -0.846065,1.4398 -2.642098,2.24133 -1.796034,0.80154 -4.631095,0.80154 z m 11.087856,-0.38593 q 0,-1.70697 0,-3.31004 0,-1.60307 0,-3.59207 v -7.18413 q 0,-2.04837 0,-3.69597 0,-1.6476 0,-3.38426 h 14.056558 v 3.99283 q -1.365579,0 -2.938964,0 -1.558541,0 -3.681126,0 h -4.987332 l 2.33039,-3.22098 q 0,1.73666 0,3.38426 0,1.6476 0,3.69597 v 5.64043 q 0,1.97415 0,3.59207 0,1.60307 0,3.31004 l -2.018682,-3.22098 h 5.031862 q 1.766347,0 3.339731,0 1.588228,0 3.05771,0 v 3.99283 z m 3.666282,-8.81689 v -3.71081 h 3.874089 q 1.959309,0 3.354574,0 1.395266,0 2.686629,0 v 3.71081 q -1.365579,0 -2.760845,0 -1.395266,0 -3.280358,0 z m 22.814033,9.21766 q -3.235829,0 -5.209981,-1.03903 -1.959309,-1.03903 -2.849904,-2.9538 -0.890595,-1.92963 -0.890595,-4.54204 0,-0.57889 0,-1.52885 0,-0.96482 0,-2.10775 0,-1.15777 0,-2.31554 0,-2.04837 0,-3.69597 0,-1.6476 0,-3.38426 h 4.868586 q 0,1.73666 0,3.38426 0,1.6476 0,3.69597 v 5.68496 q 0,1.51401 0.415611,2.58273 0.415611,1.06871 1.306206,1.63276 0.905438,0.56404 2.345234,0.56404 1.454638,0 2.33039,-0.56404 0.890595,-0.56405 1.276519,-1.63276 0.400768,-1.06872 0.400768,-2.59757 v -5.67012 q 0,-2.04837 0,-3.69597 0,-1.6476 0,-3.38426 h 4.868586 q 0,1.73666 0,3.38426 0,1.6476 0,3.69597 0,1.15777 0,2.33039 0,1.15777 0,2.12258 0,0.96481 0,1.51401 0,2.61242 -0.935124,4.5272 -0.935125,1.91477 -2.894434,2.9538 -1.959309,1.03903 -5.031862,1.03903 z m 12.869057,-0.40077 q 0,-1.70697 0,-3.31004 0,-1.60307 0,-3.59207 v -7.18413 q 0,-2.04837 0,-3.69597 0,-1.6476 0,-3.38426 1.24683,0 2.61241,0 1.38042,0 2.83506,0 1.46948,0 2.96865,0 2.41945,0 4.30454,0.69763 1.8851,0.69763 3.17646,2.04837 1.3062,1.35073 1.98899,3.31004 0.68279,1.94447 0.68279,4.45298 0,2.24133 -0.60857,4.18579 -0.59373,1.92963 -1.91478,3.38427 -1.30621,1.45463 -3.45848,2.27101 -2.15227,0.81638 -5.25451,0.81638 -1.42495,0 -2.67178,0 -1.24684,0 -2.38977,0 -1.14293,0 -2.27101,0 z m 4.88343,-3.90377 h 2.43429 q 2.28586,0 3.62175,-0.8906 1.35074,-0.89059 1.94447,-2.43429 0.59373,-1.5437 0.59373,-3.48816 0,-1.46949 -0.35624,-2.67179 -0.34139,-1.2023 -1.06871,-2.06321 -0.71248,-0.87575 -1.82572,-1.33589 -1.11325,-0.47499 -2.65695,-0.47499 h -2.68662 q 0,0.9945 0,2.01868 0,1.00935 0,2.30071 v 4.86858 q 0,1.23199 0,2.22649 0,0.9945 0,1.94447 z m 16.98066,3.90377 q 0,-1.70697 0,-3.31004 0,-1.60307 0,-3.59207 v -7.18413 q 0,-2.04837 0,-3.69597 0,-1.6476 0,-3.38426 h 4.98733 q 0,1.73666 0,3.38426 0,1.6476 0,3.69597 v 7.18413 q 0,1.989 0,3.59207 0,1.60307 0,3.31004 z m 9.24731,0 q 0,-1.70697 0,-3.31004 0,-1.60307 0,-3.59207 v -7.18413 q 0,-2.04837 0,-3.69597 0,-1.6476 0,-3.38426 h 13.84875 v 4.06705 q -1.36558,0 -2.93896,0 -1.55854,0 -3.68113,0 h -4.42328 l 1.97415,-3.2952 q 0,1.73666 0,3.38426 0,1.6476 0,3.69597 v 6.41228 q 0,1.989 0,3.59207 0,1.60307 0,3.31004 z m 3.54754,-8.41612 v -3.91862 h 3.77018 q 1.94447,0 3.33973,0 1.41011,0 2.71632,0 v 3.91862 q -1.38042,0 -2.77569,0 -1.39526,0 -3.2952,0 z m 19.31105,0.94997 -4.36391,-8.29738 q -0.71248,-1.35074 -1.36558,-2.58273 -0.63826,-1.23199 -1.48433,-2.82021 h 5.55138 q 0.5492,1.23199 0.93512,2.12258 0.38593,0.87575 0.72732,1.66245 0.35624,0.78669 0.77185,1.73666 l 1.36558,3.08739 h 0.40077 l 1.35073,-2.99833 q 0.46015,-0.9945 0.81638,-1.81088 0.37108,-0.81638 0.77185,-1.70697 0.40077,-0.8906 0.94997,-2.0929 h 5.3881 q -0.71248,1.36558 -1.42495,2.73116 -0.71248,1.35073 -1.38042,2.65694 l -4.34908,8.31222 z m -0.1039,7.46615 q 0,-1.70697 0,-3.31004 0,-1.60307 0,-3.59207 v -4.67562 h 4.89827 v 4.67562 q 0,1.989 0,3.59207 0,1.60307 0,3.31004 z m 18.79155,0 q 0.56404,-1.70697 1.17261,-3.59206 0.62342,-1.8851 1.17262,-3.57723 l 2.38976,-7.25835 q 0.63826,-1.97415 1.15778,-3.54753 0.51951,-1.58823 1.03902,-3.1913 h 6.29354 q 0.53436,1.66244 1.03903,3.23583 0.51951,1.57338 1.15777,3.503 l 2.36008,7.2732 q 0.57889,1.7515 1.17262,3.60691 0.60857,1.8554 1.15777,3.54753 h -5.0467 q -0.47499,-1.69213 -0.97966,-3.45848 -0.50467,-1.78119 -0.96481,-3.36941 l -2.90928,-10.19732 h -0.35624 l -2.93896,10.09341 q -0.47498,1.6476 -1.00934,3.45848 -0.51951,1.79603 -1.00934,3.47332 z m 5.10607,-4.42329 0.51952,-3.65144 h 9.45515 l 0.41561,3.65144 z m 17.78216,4.42329 q 0,-1.70697 0,-3.31004 0,-1.60307 0,-3.59207 v -7.18413 q 0,-2.04837 0,-3.69597 0,-1.6476 0,-3.38426 h 4.98734 q 0,1.73666 0,3.38426 0,1.6476 0,3.69597 v 7.18413 q 0,1.989 0,3.59207 0,1.60307 0,3.31004 z"
       id="text2"
       aria-label="PSEUDIFY AI" /><path
       style="font-size:9.43158px;font-family:Commissioner;-inkscape-font-specification:Commissioner;fill:#8c4a91;stroke-width:1.01372"
       d="m 38.984467,178.27985 q 0,-0.56118 0,-1.07992 0,-0.51874 0,-1.14122 v -2.13154 q 0,-0.63191 0,-1.15537 0,-0.52816 0,-1.09406 l 0.339536,0.63663 h -0.796968 q -0.570611,0 -1.013895,0 -0.438568,0 -0.834695,0 v -0.75924 h 5.460885 v 0.75924 q -0.396126,0 -0.834695,0 -0.438568,0 -1.013895,0 h -0.796968 l 0.344253,-0.63663 q 0,0.5659 0,1.09406 0,0.52346 0,1.15537 v 2.13154 q 0,0.62248 0,1.14122 0,0.51874 0,1.07992 z m 8.790221,0 q 0,-0.56118 0,-1.07992 0,-0.51874 0,-1.14122 v -2.25415 q 0,-0.63663 0,-1.16008 0,-0.52817 0,-1.08935 h 0.853558 q 0,0.56118 0,1.08935 0,0.52345 0,1.16008 v 2.25415 q 0,0.62248 0,1.14122 0,0.51874 0,1.07992 z m -4.470569,0 q 0,-0.56118 0,-1.07992 0,-0.51874 0,-1.14122 v -2.25415 q 0,-0.63663 0,-1.16008 0,-0.52817 0,-1.08935 h 0.853558 q 0,0.56118 0,1.08935 0,0.52345 0,1.16008 v 2.25415 q 0,0.62248 0,1.14122 0,0.51874 0,1.07992 z m 0.556463,-3.03697 v -0.73567 h 4.239495 v 0.73567 z m 6.51249,3.03697 q 0,-0.56118 0,-1.07992 0,-0.51874 0,-1.14122 v -2.25886 q 0,-0.6272 0,-1.15537 0,-0.52817 0,-1.08935 h 4.17819 v 0.73095 q -0.471579,0 -1.013895,0 -0.5376,0 -1.273263,0 h -1.527916 l 0.471579,-0.60834 q 0,0.5659 0,1.09406 0,0.52346 0,1.15066 v 2.00892 q 0,0.61777 0,1.14122 0,0.51874 0,1.07992 l -0.424421,-0.60362 h 1.556211 q 0.617768,0 1.1648,0 0.551747,0 1.056337,0 v 0.73095 z m 0.650779,-3.05112 v -0.71208 h 1.306274 q 0.650779,0 1.122358,0 0.471579,0 0.910148,0 v 0.71208 q -0.462148,0 -0.933727,0 -0.466863,0 -1.103495,0 z m 6.752993,3.05112 q 0,-0.56118 0,-1.07992 0,-0.51874 0,-1.14122 v -2.25415 q 0,-0.63663 0,-1.16008 0,-0.52817 0,-1.08935 0.424421,0 0.811116,0 0.386694,0 0.768673,0 0.381979,0 0.782822,0 0.778105,0 1.381726,0.22636 0.603621,0.22164 1.013895,0.65549 0.414989,0.42914 0.6272,1.04691 0.216926,0.61777 0.216926,1.4053 0,0.71209 -0.188631,1.32986 -0.188632,0.61305 -0.603622,1.07991 -0.410273,0.46215 -1.079915,0.72152 -0.664927,0.25937 -1.622232,0.25937 -0.405558,0 -0.749811,0 -0.344252,0 -0.674358,0 -0.325389,0 -0.683789,0 z m 0.853558,-0.71209 h 1.259116 q 0.962021,0 1.532631,-0.34897 0.570611,-0.35368 0.820548,-0.96202 0.249937,-0.61305 0.249937,-1.38172 0,-0.58948 -0.150906,-1.07049 -0.146189,-0.48101 -0.452715,-0.82526 -0.301811,-0.34425 -0.778106,-0.52817 -0.471579,-0.18392 -1.117642,-0.18392 h -1.362863 q 0,0.40556 0,0.81112 0,0.40084 0,0.88185 v 1.93348 q 0,0.47158 0,0.87242 0,0.40084 0,0.80168 z m 5.215655,0.71209 q 0.198063,-0.54232 0.410274,-1.14122 0.216926,-0.59891 0.414989,-1.13651 l 0.834695,-2.31074 q 0.221642,-0.62248 0.405558,-1.12236 0.183916,-0.50458 0.367831,-1.01389 h 1.122358 q 0.183916,0.51874 0.363116,1.01861 0.1792,0.49987 0.400842,1.12236 l 0.829979,2.31545 q 0.198064,0.55646 0.405558,1.14594 0.212211,0.58476 0.405558,1.12236 h -0.886568 q -0.202779,-0.58948 -0.419706,-1.21196 -0.21221,-0.6272 -0.400842,-1.17895 l -1.226105,-3.56514 h -0.08017 l -1.235537,3.53213 q -0.202779,0.57533 -0.419706,1.20724 -0.216926,0.6272 -0.429137,1.21668 z m 1.244968,-1.68826 0.07545,-0.66964 h 3.4048 l 0.06131,0.66964 z m 6.759946,1.68826 q 0,-0.56118 0,-1.07992 0,-0.51874 0,-1.14122 v -2.13154 q 0,-0.63191 0,-1.15537 0,-0.52816 0,-1.09406 l 0.339537,0.63663 H 71.39354 q -0.570611,0 -1.013895,0 -0.438569,0 -0.834695,0 v -0.75924 h 5.460885 v 0.75924 q -0.396127,0 -0.834695,0 -0.438569,0 -1.013895,0 h -0.796968 l 0.344252,-0.63663 q 0,0.5659 0,1.09406 0,0.52346 0,1.15537 v 2.13154 q 0,0.62248 0,1.14122 0,0.51874 0,1.07992 z m 2.902435,0 q 0.198063,-0.54232 0.410273,-1.14122 0.216927,-0.59891 0.41499,-1.13651 l 0.834695,-2.31074 q 0.221642,-0.62248 0.405557,-1.12236 0.183916,-0.50458 0.367832,-1.01389 h 1.122358 q 0.183916,0.51874 0.363116,1.01861 0.1792,0.49987 0.400842,1.12236 l 0.829979,2.31545 q 0.198063,0.55646 0.405558,1.14594 0.21221,0.58476 0.405558,1.12236 h -0.886569 q -0.202779,-0.58948 -0.419705,-1.21196 -0.21221,-0.6272 -0.400842,-1.17895 l -1.226105,-3.56514 h -0.08017 l -1.235537,3.53213 q -0.202779,0.57533 -0.419705,1.20724 -0.216926,0.6272 -0.429137,1.21668 z m 1.244968,-1.68826 0.07545,-0.66964 h 3.4048 l 0.0613,0.66964 z m 7.95081,1.68826 q -0.471579,0 -0.872421,0 -0.400842,0 -0.712084,0 -0.311243,0 -0.509306,0 0,-0.56118 0,-1.07992 0,-0.51874 0,-1.14122 v -2.25886 q 0,-0.6272 0,-1.15537 0,-0.52817 0,-1.08935 0.532884,0 1.1648,0 0.636632,0 1.306274,0 0.589474,0 0.999748,0.11318 0.414989,0.10846 0.674357,0.31596 0.259369,0.20278 0.381979,0.49515 0.122611,0.29238 0.122611,0.66022 0,0.42913 -0.155621,0.74981 -0.155621,0.32067 -0.424421,0.53288 -0.264084,0.21221 -0.603621,0.31596 v 0.0849 q 0.348968,0.066 0.66021,0.24522 0.311242,0.1792 0.50459,0.51402 0.193347,0.33011 0.193347,0.84885 0,0.39612 -0.136758,0.73566 -0.132042,0.33482 -0.443284,0.58476 -0.306526,0.24993 -0.834695,0.39141 -0.523452,0.13676 -1.315705,0.13676 z m -1.259116,-0.70737 h 1.325137 q 0.641347,0 1.032758,-0.14619 0.396126,-0.14619 0.57061,-0.41499 0.1792,-0.2688 0.1792,-0.64135 0,-0.61777 -0.433852,-0.88185 -0.433853,-0.2688 -1.216674,-0.2688 h -1.645811 v -0.68379 h 1.645811 q 0.518737,0 0.844126,-0.16977 0.330106,-0.16977 0.481011,-0.44328 0.150905,-0.27352 0.150905,-0.59891 0,-0.55175 -0.344252,-0.8064 -0.339537,-0.25465 -1.013895,-0.25465 h -1.575074 q 0,0.41027 0,0.81583 0,0.40556 0,0.89128 v 1.92876 q 0,0.4763 0,0.87242 0,0.39613 0,0.80169 z m 4.633368,0.70737 q 0.198063,-0.54232 0.410273,-1.14122 0.216927,-0.59891 0.41499,-1.13651 l 0.834695,-2.31074 q 0.221642,-0.62248 0.405558,-1.12236 0.183915,-0.50458 0.367831,-1.01389 h 1.122358 q 0.183916,0.51874 0.363116,1.01861 0.1792,0.49987 0.400842,1.12236 l 0.829979,2.31545 q 0.198063,0.55646 0.405558,1.14594 0.212211,0.58476 0.405558,1.12236 h -0.886568 q -0.202779,-0.58948 -0.419706,-1.21196 -0.21221,-0.6272 -0.400842,-1.17895 l -1.226105,-3.56514 h -0.08017 l -1.235537,3.53213 q -0.202779,0.57533 -0.419705,1.20724 -0.216926,0.6272 -0.429137,1.21668 z m 1.244968,-1.68826 0.07545,-0.66964 h 3.4048 l 0.0613,0.66964 z m 7.809336,1.792 q -0.419705,0 -0.848842,-0.0802 -0.424421,-0.0755 -0.787537,-0.18864 -0.3584,-0.11789 -0.580042,-0.23579 l 0.08017,-0.8064 q 0.315958,0.17449 0.655494,0.30653 0.344253,0.12733 0.697937,0.19806 0.3584,0.0707 0.730948,0.0707 0.419705,0 0.754526,-0.11318 0.339537,-0.11789 0.532884,-0.36783 0.198064,-0.25465 0.198064,-0.66493 0,-0.3584 -0.202779,-0.58947 -0.202779,-0.23579 -0.589474,-0.40556 -0.381979,-0.16977 -0.929011,-0.33954 -0.641347,-0.20277 -1.094063,-0.43856 -0.452716,-0.23579 -0.693221,-0.58005 -0.23579,-0.34896 -0.23579,-0.88656 0,-0.52346 0.245221,-0.93845 0.249937,-0.41499 0.740379,-0.65078 0.490443,-0.2405 1.216674,-0.2405 0.301811,0 0.59419,0.0424 0.297095,0.0424 0.565895,0.1179 0.2688,0.0707 0.490442,0.16033 0.221642,0.0896 0.377263,0.18392 l -0.08488,0.81111 q -0.287664,-0.19334 -0.608337,-0.32067 -0.320674,-0.13204 -0.636632,-0.19335 -0.315958,-0.066 -0.584758,-0.066 -0.381979,0 -0.702652,0.11318 -0.320674,0.11318 -0.518737,0.34897 -0.193348,0.23107 -0.193348,0.59891 0,0.32067 0.165053,0.53288 0.165053,0.21221 0.518737,0.38198 0.3584,0.16505 0.919579,0.34425 0.811116,0.25465 1.273263,0.51874 0.466863,0.25937 0.660211,0.60362 0.198063,0.34425 0.198063,0.84413 0,0.55174 -0.245221,0.9856 -0.240506,0.43385 -0.754527,0.6885 -0.514021,0.25465 -1.325137,0.25465 z m 3.579268,-0.10374 q 0,-0.56118 0,-1.07992 0,-0.51874 0,-1.14122 v -2.25886 q 0,-0.6272 0,-1.15537 0,-0.52817 0,-1.08935 h 4.178192 v 0.73095 q -0.47158,0 -1.0139,0 -0.5376,0 -1.27326,0 h -1.52792 l 0.47158,-0.60834 q 0,0.5659 0,1.09406 0,0.52346 0,1.15066 v 2.00892 q 0,0.61777 0,1.14122 0,0.51874 0,1.07992 l -0.42442,-0.60362 h 1.55621 q 0.61777,0 1.1648,0 0.55175,0 1.05634,0 v 0.73095 z m 0.650782,-3.05112 v -0.71208 h 1.30627 q 0.65078,0 1.12236,0 0.47158,0 0.91015,0 v 0.71208 q -0.46215,0 -0.93373,0 -0.46686,0 -1.10349,0 z m 6.75299,3.05112 q 0,-0.56118 0,-1.07992 0,-0.51874 0,-1.14122 v -2.25886 q 0,-0.6272 0,-1.15537 0,-0.52817 0,-1.08935 0.38198,0 0.9856,0 0.60834,0 1.39116,0 0.76867,0 1.26855,0.20278 0.50459,0.20278 0.75452,0.63191 0.24994,0.42443 0.24994,1.08935 0,0.61777 -0.23107,1.09878 -0.22636,0.4763 -0.76396,0.74981 -0.53288,0.27352 -1.45718,0.27352 -0.23579,0 -0.50459,0 -0.2688,0 -0.52345,0 -0.25465,0 -0.44329,0 v -0.70737 h 1.31099 q 0.60362,0 0.9856,-0.14147 0.3867,-0.14148 0.57061,-0.45272 0.18392,-0.31124 0.18392,-0.81583 0,-0.41499 -0.13676,-0.66021 -0.13204,-0.24522 -0.35368,-0.36312 -0.21693,-0.12261 -0.47158,-0.16034 -0.25465,-0.0377 -0.49516,-0.0377 h -1.89575 l 0.41499,-0.58476 q 0,0.5659 0,1.09406 0,0.52346 0,1.15066 v 2.13625 q 0,0.62248 0,1.14122 0,0.51874 0,1.07992 z m 7.87064,0.10374 q -0.41971,0 -0.84885,-0.0802 -0.42442,-0.0755 -0.78753,-0.18864 -0.3584,-0.11789 -0.58004,-0.23579 l 0.0802,-0.8064 q 0.31596,0.17449 0.6555,0.30653 0.34425,0.12733 0.69794,0.19806 0.3584,0.0707 0.73094,0.0707 0.41971,0 0.75453,-0.11318 0.33954,-0.11789 0.53288,-0.36783 0.19807,-0.25465 0.19807,-0.66493 0,-0.3584 -0.20278,-0.58947 -0.20278,-0.23579 -0.58948,-0.40556 -0.38198,-0.16977 -0.92901,-0.33954 -0.64134,-0.20277 -1.09406,-0.43856 -0.45272,-0.23579 -0.69322,-0.58005 -0.23579,-0.34896 -0.23579,-0.88656 0,-0.52346 0.24522,-0.93845 0.24994,-0.41499 0.74038,-0.65078 0.49044,-0.2405 1.21667,-0.2405 0.30181,0 0.59419,0.0424 0.2971,0.0424 0.5659,0.1179 0.2688,0.0707 0.49044,0.16033 0.22164,0.0896 0.37726,0.18392 l -0.0849,0.81111 q -0.28766,-0.19334 -0.60834,-0.32067 -0.32067,-0.13204 -0.63663,-0.19335 -0.31596,-0.066 -0.58476,-0.066 -0.38198,0 -0.70265,0.11318 -0.32067,0.11318 -0.51874,0.34897 -0.19334,0.23107 -0.19334,0.59891 0,0.32067 0.16505,0.53288 0.16505,0.21221 0.51873,0.38198 0.3584,0.16505 0.91958,0.34425 0.81112,0.25465 1.27327,0.51874 0.46686,0.25937 0.66021,0.60362 0.19806,0.34425 0.19806,0.84413 0,0.55174 -0.24522,0.9856 -0.24051,0.43385 -0.75453,0.6885 -0.51402,0.25465 -1.32513,0.25465 z m 3.57927,-0.10374 q 0,-0.56118 0,-1.07992 0,-0.51874 0,-1.14122 v -2.25886 q 0,-0.6272 0,-1.15537 0,-0.52817 0,-1.08935 h 4.17819 v 0.73095 q -0.47158,0 -1.0139,0 -0.5376,0 -1.27326,0 h -1.52792 l 0.47158,-0.60834 q 0,0.5659 0,1.09406 0,0.52346 0,1.15066 v 2.00892 q 0,0.61777 0,1.14122 0,0.51874 0,1.07992 l -0.42442,-0.60362 h 1.55621 q 0.61777,0 1.1648,0 0.55175,0 1.05634,0 v 0.73095 z m 0.65078,-3.05112 v -0.71208 h 1.30627 q 0.65078,0 1.12236,0 0.47158,0 0.91015,0 v 0.71208 q -0.46215,0 -0.93373,0 -0.46686,0 -1.1035,0 z m 7.52166,3.15486 q -0.93844,0 -1.52791,-0.32067 -0.58476,-0.32539 -0.86299,-0.91015 -0.27352,-0.58947 -0.27352,-1.37229 0,-0.19807 0,-0.50931 0,-0.31596 0,-0.69793 0,-0.38198 0,-0.76868 0,-0.63663 0,-1.16008 0,-0.52817 0,-1.08935 h 0.84885 q 0,0.56118 0,1.08935 0,0.52345 0,1.16008 v 1.89103 q 0,0.60834 0.1792,1.04691 0.1792,0.43857 0.57532,0.67436 0.40084,0.23107 1.06105,0.23107 0.66493,0 1.05634,-0.23107 0.39613,-0.23579 0.57061,-0.67436 0.17449,-0.43857 0.17449,-1.05634 v -1.8816 q 0,-0.63663 0,-1.16008 0,-0.52817 0,-1.08935 h 0.84884 q 0,0.56118 0,1.08935 0,0.52345 0,1.16008 0,0.3867 0,0.77339 0,0.38198 0,0.69794 0,0.31596 0,0.50459 0,0.78282 -0.27823,1.37229 -0.27823,0.58476 -0.86299,0.91015 -0.58476,0.32067 -1.50906,0.32067 z m 4.31495,-0.10374 q 0,-0.56118 0,-1.07992 0,-0.51874 0,-1.14122 v -2.25415 q 0,-0.63663 0,-1.16008 0,-0.52817 0,-1.08935 0.42442,0 0.81111,0 0.3867,0 0.76868,0 0.38198,0 0.78282,0 0.7781,0 1.38172,0.22636 0.60362,0.22164 1.0139,0.65549 0.41499,0.42914 0.6272,1.04691 0.21692,0.61777 0.21692,1.4053 0,0.71209 -0.18863,1.32986 -0.18863,0.61305 -0.60362,1.07991 -0.41027,0.46215 -1.07991,0.72152 -0.66493,0.25937 -1.62224,0.25937 -0.40555,0 -0.74981,0 -0.34425,0 -0.67435,0 -0.32539,0 -0.68379,0 z m 0.85355,-0.71209 h 1.25912 q 0.96202,0 1.53263,-0.34897 0.57061,-0.35368 0.82055,-0.96202 0.24994,-0.61305 0.24994,-1.38172 0,-0.58948 -0.15091,-1.07049 -0.14619,-0.48101 -0.45271,-0.82526 -0.30182,-0.34425 -0.77811,-0.52817 -0.47158,-0.18392 -1.11764,-0.18392 h -1.36287 q 0,0.40556 0,0.81112 0,0.40084 0,0.88185 v 1.93348 q 0,0.47158 0,0.87242 0,0.40084 0,0.80168 z m 9.10619,0.81583 q -0.85355,0 -1.4949,-0.27351 -0.64135,-0.27823 -1.07049,-0.75924 -0.42442,-0.48573 -0.63663,-1.11293 -0.21221,-0.6272 -0.21221,-1.32514 0,-0.98088 0.39613,-1.76842 0.40084,-0.78754 1.15537,-1.24968 0.75452,-0.46215 1.83444,-0.46215 0.82055,0 1.44775,0.2688 0.63191,0.2688 1.06105,0.74509 0.42914,0.4763 0.64606,1.10821 0.21693,0.63192 0.21693,1.35344 0,0.99503 -0.39613,1.78257 -0.39612,0.78282 -1.14593,1.24025 -0.74981,0.45271 -1.80144,0.45271 z m -0.0236,-0.73566 q 0.64607,0 1.11293,-0.22164 0.46686,-0.22636 0.76868,-0.61305 0.30652,-0.3867 0.45271,-0.87714 0.14619,-0.49516 0.14619,-1.02804 0,-0.57533 -0.16034,-1.07049 -0.15562,-0.49987 -0.47158,-0.87242 -0.31124,-0.37726 -0.77338,-0.58476 -0.46215,-0.21221 -1.07521,-0.21221 -0.63191,0 -1.10349,0.22164 -0.46686,0.22165 -0.77811,0.60834 -0.31124,0.38198 -0.46686,0.87714 -0.15562,0.49044 -0.15562,1.03276 0,0.54703 0.15091,1.03747 0.1509,0.49044 0.45743,0.87714 0.31124,0.38198 0.78282,0.60362 0.47158,0.22164 1.11292,0.22164 z m 4.71578,0.63192 q 0,-0.56118 0,-1.07992 0,-0.51874 0,-1.14122 v -2.25415 q 0,-0.63663 0,-1.16008 0,-0.52817 0,-1.08935 h 0.76868 q 0.60362,0.84884 1.16008,1.63638 0.55646,0.78754 1.09878,1.55149 l 1.45718,2.05609 h 0.0707 v -2.99453 q 0,-0.63663 0,-1.16008 0,-0.52817 0,-1.08935 h 0.81111 q 0,0.56118 0,1.08935 0,0.52345 0,1.16008 v 2.25415 q 0,0.62248 0,1.14122 0,0.51874 0,1.07992 h -0.75924 q -0.49987,-0.70737 -1.05162,-1.48548 -0.55175,-0.78282 -1.21196,-1.71655 l -1.46661,-2.07023 h -0.066 v 3.05112 q 0,0.62248 0,1.14122 0,0.51874 0,1.07992 z m 8.91756,-2.6267 -1.46661,-2.48522 q -0.23579,-0.39613 -0.45271,-0.76396 -0.21693,-0.37255 -0.49988,-0.84884 h 0.97617 q 0.25937,0.45272 0.44329,0.77811 0.18391,0.32538 0.34896,0.61776 0.16506,0.28767 0.36312,0.63664 l 0.65078,1.14593 h 0.0849 l 0.63192,-1.10349 q 0.21221,-0.37255 0.38198,-0.67436 0.17448,-0.30181 0.36311,-0.6272 0.18864,-0.33011 0.44329,-0.77339 h 0.9573 q -0.2405,0.41027 -0.48101,0.81583 -0.23579,0.40084 -0.46686,0.79225 l -1.46661,2.48994 z m -0.0189,2.6267 q 0,-0.56118 0,-1.07992 0,-0.51874 0,-1.14122 v -1.11764 h 0.85356 v 1.11764 q 0,0.62248 0,1.14122 0,0.51874 0,1.07992 z m 3.59837,0 q 0.066,-0.54704 0.13204,-1.07992 0.0707,-0.53288 0.14619,-1.16008 l 0.27823,-2.21643 q 0.0755,-0.61776 0.14148,-1.15065 0.066,-0.53288 0.14147,-1.11764 h 0.85827 q 0.29238,0.7168 0.5659,1.38644 0.27351,0.66493 0.54231,1.32514 l 1.06577,2.61255 h 0.066 l 1.05634,-2.60784 q 0.2688,-0.66964 0.5376,-1.32985 0.2688,-0.66021 0.55646,-1.38644 h 0.85828 q 0.0707,0.57533 0.13204,1.10821 0.066,0.53288 0.14619,1.15537 l 0.27352,2.24 q 0.0754,0.61305 0.14147,1.14122 0.066,0.52345 0.13204,1.07992 h -0.81583 q -0.10846,-0.896 -0.20749,-1.7024 -0.099,-0.8064 -0.18392,-1.50434 l -0.24522,-2.00893 h -0.0613 l -0.85355,2.16455 q -0.31125,0.78754 -0.62249,1.57979 -0.31124,0.78754 -0.58004,1.47133 h -0.58004 q -0.16977,-0.42914 -0.37727,-0.94316 -0.20749,-0.51402 -0.42913,-1.05162 -0.21693,-0.5376 -0.42442,-1.04219 l -0.88186,-2.1787 h -0.0613 l -0.24522,2.00421 q -0.0849,0.70266 -0.18392,1.50906 -0.0943,0.8064 -0.20278,1.7024 z m 9.28537,0 q 0,-0.56118 0,-1.07992 0,-0.51874 0,-1.14122 v -2.25415 q 0,-0.63663 0,-1.16008 0,-0.52817 0,-1.08935 h 0.8677 q 0,0.56118 0,1.08935 0,0.52345 0,1.16008 v 2.25415 q 0,0.62248 0,1.14122 0,0.51874 0,1.07992 z m 2.20227,0 v -0.49045 q 0.26408,-0.34896 0.59419,-0.78282 0.33482,-0.43385 0.66964,-0.87242 0.33954,-0.43857 0.62249,-0.8064 l 2.56067,-3.34349 0.19806,0.30181 h -1.91932 q -0.59419,0 -1.26384,0 -0.66492,0 -1.38644,0 v -0.73095 h 5.27697 v 0.61305 q -0.44328,0.57061 -0.8677,1.12236 -0.41971,0.55175 -0.84413,1.1035 l -2.70215,3.51326 -0.12732,-0.3584 h 1.75427 q 0.4197,0 0.93373,0 0.51402,0 1.00917,0 0.49988,0 0.88186,0 v 0.73095 z m 6.753,0 q 0,-0.56118 0,-1.07992 0,-0.51874 0,-1.14122 v -2.25886 q 0,-0.6272 0,-1.15537 0,-0.52817 0,-1.08935 h 4.17819 v 0.73095 q -0.47158,0 -1.01389,0 -0.5376,0 -1.27327,0 h -1.52791 l 0.47158,-0.60834 q 0,0.5659 0,1.09406 0,0.52346 0,1.15066 v 2.00892 q 0,0.61777 0,1.14122 0,0.51874 0,1.07992 l -0.42442,-0.60362 h 1.55621 q 0.61777,0 1.1648,0 0.55174,0 1.05633,0 v 0.73095 z m 0.65078,-3.05112 v -0.71208 h 1.30628 q 0.65077,0 1.12235,0 0.47158,0 0.91015,0 v 0.71208 q -0.46215,0 -0.93373,0 -0.46686,0 -1.10349,0 z m 4.94685,3.05112 q 0,-0.56118 0,-1.07992 0,-0.51874 0,-1.14122 v -2.25886 q 0,-0.6272 0,-1.15537 0,-0.52817 0,-1.08935 0.2688,0 0.61777,0 0.35368,0 0.76867,0 0.41971,0 0.88657,0 0.76867,0 1.27798,0.18392 0.51402,0.1792 0.76867,0.58004 0.25937,0.40084 0.25937,1.05633 0,0.55175 -0.21693,1.00918 -0.21221,0.45744 -0.71208,0.73567 -0.49987,0.27351 -1.35343,0.27823 l 0.2688,-0.37255 1.06105,1.32514 q 0.24994,0.30652 0.52817,0.65549 0.27823,0.34897 0.54231,0.68379 0.26409,0.33011 0.47158,0.58948 h -0.99974 q -0.33482,-0.42442 -0.64607,-0.82055 -0.30652,-0.39613 -0.60833,-0.77339 l -1.20725,-1.55621 0.52346,0.4197 h -1.54207 v -0.70265 h 1.27798 q 0.58948,0 0.97146,-0.13676 0.38197,-0.13675 0.57061,-0.43857 0.18863,-0.30652 0.18863,-0.81111 0,-0.41971 -0.13676,-0.66021 -0.13204,-0.24522 -0.35368,-0.3584 -0.21693,-0.11318 -0.47158,-0.14619 -0.25466,-0.033 -0.49045,-0.033 h -1.98063 l 0.57061,-0.58476 q 0,0.58004 0,1.1035 0,0.52345 0,1.14122 v 2.13625 q 0,0.62248 0,1.14122 0,0.51874 0,1.07992 z"
       id="text3"
       transform="scale(1.0034066,0.99660496)"
       aria-label="THE DATABASE PSEUDONYMIZER" /></g></svg>
