<?xml version="1.0" encoding="UTF-8" standalone="no"?>
<!-- Created with Inkscape (http://www.inkscape.org/) -->

<svg
   width="850"
   height="850"
   viewBox="0 0 224.89583 224.89584"
   version="1.1"
   id="svg1"
   xml:space="preserve"
   inkscape:version="1.3.1 (9b9bdc1480, 2023-11-25, custom)"
   sodipodi:docname="logo"
   xmlns:inkscape="http://www.inkscape.org/namespaces/inkscape"
   xmlns:sodipodi="http://sodipodi.sourceforge.net/DTD/sodipodi-0.dtd"
   xmlns="http://www.w3.org/2000/svg"
   xmlns:svg="http://www.w3.org/2000/svg"><sodipodi:namedview
     id="namedview1"
     pagecolor="#ffffff"
     bordercolor="#000000"
     borderopacity="0.25"
     inkscape:showpageshadow="2"
     inkscape:pageopacity="0.0"
     inkscape:pagecheckerboard="0"
     inkscape:deskcolor="#d1d1d1"
     inkscape:document-units="mm"
     inkscape:zoom="0.74997736"
     inkscape:cx="322.00972"
     inkscape:cy="382.01153"
     inkscape:window-width="2490"
     inkscape:window-height="1376"
     inkscape:window-x="70"
     inkscape:window-y="27"
     inkscape:window-maximized="1"
     inkscape:current-layer="layer1" /><defs
     id="defs1" /><g
     inkscape:label="Ebene 1"
     inkscape:groupmode="layer"
     id="layer1"><rect
       style="fill:#fbfcf6;stroke-width:1.82"
       id="rect36"
       width="224.89583"
       height="224.89583"
       x="0"
       y="0" /><path
       style="display:inline;fill:#511b57"
       d="m 93.482935,116.49003 -0.56769,-0.0809 -0.38681,-0.44824 c -0.21275,-0.24653 -3.00569,-5.09168 -6.20653,-10.76699 -3.20085,-5.675314 -7.463384,-13.216044 -9.472304,-16.757174 l -3.652584,-6.438417 0.53932,-1.1022 c 0.97961,-2.00201 18.268068,-32.307877 18.854258,-33.050647 l 0.57422,-0.7276 h 19.376195 19.37618 l 0.43526,0.33073 0.43527,0.33072 7.05378,12.435417 c 3.8796,6.83948 8.1346,14.3387 9.45556,16.66494 l 2.40176,4.22953 -0.0229,0.80864 -0.0229,0.80864 -9.45767,16.602127 -9.45767,16.602124 -0.49318,0.26394 -0.49318,0.26395 -18.85033,0.0562 c -10.36769,0.0309 -19.105805,0.0198 -19.418025,-0.0247 z m 32.163345,-2.01216 c -0.0606,-0.0598 -5.80476,-1.55509 -12.76469,-3.32288 l -12.65444,-3.21417 -0.698805,0.0817 -0.6988,0.0817 -1.22042,1.98437 c -0.67123,1.09141 -1.54945,2.54992 -1.95159,3.24115 l -0.73116,1.25677 h 15.415065 c 8.47829,0 15.36547,-0.0489 15.30484,-0.10871 z m -30.439085,-4.10395 1.88613,-3.15432 v -0.42188 -0.42188 l -8.36354,-8.660774 c -8.965674,-9.28432 -9.626084,-9.94165 -9.806714,-9.76102 -0.0646,0.0646 2.84541,5.33926 6.466794,11.72138 3.62137,6.382124 6.86508,12.109874 7.20823,12.728344 0.76537,1.3794 0.40106,1.66283 2.6091,-2.02985 z m 35.187825,2.80058 0.29359,-0.35375 3.06302,-13.167184 c 1.68466,-7.24195 2.99922,-13.23099 2.92123,-13.30897 -0.11671,-0.11671 -16.47317,9.08902 -31.47362,17.713954 l -3.40346,1.95691 0.0143,0.24725 0.0144,0.24726 13.84016,3.48483 c 15.53356,3.91123 14.33754,3.65306 14.73039,3.1797 z m 5.48116,-6.59157 c 1.41745,-2.51023 5.00496,-8.834254 7.97225,-14.053384 l 5.39507,-9.48932 -0.15097,-0.15097 -0.15096,-0.150967 -4.61803,1.012617 -4.61804,1.01262 -0.38827,0.42902 -0.38827,0.42903 -2.92615,12.42154 c -2.81086,11.932074 -3.06259,13.103884 -2.81498,13.103884 0.0611,0 1.27091,-2.05383 2.68835,-4.56407 z m -25.25475,-7.804894 c 5.58366,-3.18746 13.57634,-7.73436 17.76151,-10.10421 4.18517,-2.36986 7.66564,-4.39981 7.73437,-4.51101 l 0.12495,-0.20218 -2.3104,-1.408767 c -1.27073,-0.77482 -9.21603,-5.6515 -17.65624,-10.83707 -8.44021,-5.18556 -15.61373,-9.57122 -15.94115,-9.7459 l -0.595315,-0.31761 v 21.601157 21.601164 l 0.365085,-0.1401 c 0.2008,-0.077 4.93353,-2.74801 10.51719,-5.935474 z m -13.062055,-26.175787 -0.0692,-10.49891 -10.38489,9.99431 c -5.711704,5.49687 -10.384904,10.11878 -10.384904,10.2709 0,0.15212 1.5799,1.897237 3.51089,3.878037 1.931,1.98079 6.604204,6.80053 10.384904,10.71053 l 6.874,7.109084 0.0692,-10.482524 c 0.038,-5.76539 0.038,-15.207027 0,-20.981427 z m 47.158945,9.27337 c 2.4011,-0.52944 4.40195,-0.99277 4.44635,-1.02963 0.10024,-0.0832 -14.43793,-25.827537 -14.78101,-26.174307 l -0.24868,-0.25135 v 0.39633 c 0,0.49739 4.72032,27.238597 4.88765,27.689187 l 0.12283,0.330727 0.60361,8.2e-4 c 0.33199,4.5e-4 2.56815,-0.432347 4.96925,-0.961777 z m -10.5954,-15.90994 -2.69567,-15.011387 -0.25013,-0.31157 -0.25013,-0.31157 -1.37257,0.40564 c -0.75491,0.22311 -6.49225,2.07547 -12.74965,4.11635 -6.25739,2.04088 -12.15098,3.94657 -13.09687,4.23487 -0.94589,0.2883 -1.9371,0.63896 -2.20269,0.77924 l -0.48291,0.255057 12.52145,7.68671 c 6.88679,4.2277 14.90269,9.15759 17.81311,10.95532 l 5.29166,3.2686 0.085,-0.52793 0.085,-0.52793 z m -46.724615,3.26965 c 5.31858,-5.07959 9.73291,-9.399207 9.80964,-9.599157 l 0.1395,-0.36354 -1.86495,-4.02158 c -1.02572,-2.21186 -1.98868,-4.17065 -2.1399,-4.35287 l -0.27495,-0.33129 -4.02566,7.07286 C 81.693501,70.550609 77.383051,78.167749 77.282641,78.420059 l -0.0992,0.24933 0.27238,-0.0992 c 0.1498,-0.0546 4.62393,-4.25525 9.942504,-9.33484 z M 112.71072,54.253092 c 7.19945,-2.333 13.47685,-4.3663 13.94979,-4.51844 l 0.8599,-0.27661 v -0.24407 -0.24406 H 111.24853 94.976655 v 0.38774 c 0,0.89801 4.00801,9.13726 4.44485,9.13726 0.10963,0 6.089775,-1.90882 13.289215,-4.24182 z"
       id="path36" /><text
       xml:space="preserve"
       style="font-style:normal;font-variant:normal;font-weight:normal;font-stretch:normal;font-size:29.6865px;font-family:'Font Awesome 6 Brands';-inkscape-font-specification:'Font Awesome 6 Brands';display:inline;fill:#8c4a91;stroke-width:3.19072"
       x="21.881985"
       y="156.49098"
       id="text2"><tspan
         sodipodi:role="line"
         id="tspan2"
         x="21.881985"
         y="156.49098"
         style="font-style:normal;font-variant:normal;font-weight:bold;font-stretch:normal;font-size:29.6865px;font-family:Commissioner;-inkscape-font-specification:'Commissioner Bold';fill:#8c4a91;stroke-width:3.19072">PSEUDIFY AI</tspan></text><text
       xml:space="preserve"
       style="font-style:normal;font-variant:normal;font-weight:bold;font-stretch:normal;font-size:9.43158px;font-family:Commissioner;-inkscape-font-specification:'Commissioner Bold';display:inline;fill:#8c4a91;stroke-width:1.01372"
       x="36.386066"
       y="178.27985"
       id="text3"
       transform="scale(1.0034066,0.99660496)"><tspan
         sodipodi:role="line"
         id="tspan3"
         style="font-style:normal;font-variant:normal;font-weight:normal;font-stretch:normal;font-family:Commissioner;-inkscape-font-specification:Commissioner;fill:#8c4a91;stroke-width:1.01372"
         x="36.386066"
         y="178.27985">THE DATABASE PSEUDONYMIZER</tspan></text></g></svg>
