<?xml version="1.0" encoding="UTF-8" standalone="no"?>
<svg
   xmlns:dc="http://purl.org/dc/elements/1.1/"
   xmlns:cc="http://creativecommons.org/ns#"
   xmlns:rdf="http://www.w3.org/1999/02/22-rdf-syntax-ns#"
   xmlns:svg="http://www.w3.org/2000/svg"
   xmlns="http://www.w3.org/2000/svg"
   id="svg8"
   version="1.1"
   viewBox="0 0 210 211"
   height="211mm"
   width="210mm">
  <defs
     id="defs2" />
  <metadata
     id="metadata5">
    <rdf:RDF>
      <cc:Work
         rdf:about="">
        <dc:format>image/svg+xml</dc:format>
        <dc:type
           rdf:resource="http://purl.org/dc/dcmitype/StillImage" />
        <dc:title></dc:title>
      </cc:Work>
    </rdf:RDF>
  </metadata>
  <g
     transform="translate(0,-86)"
     id="layer1">
    <circle
       r="105.03844"
       cy="191.80037"
       cx="105.10328"
       id="path815"
       style="fill:#8eb886;fill-opacity:1;stroke-width:0.33650756" />
    <path
       id="path817"
       d="M 100.07346,296.55847 C 66.902901,295.21936 35.40189,277.15087 17.155452,248.99797 0.52940169,223.34521 -4.1170584,192.1262 4.3098153,162.68954 9.1413567,145.81204 18.329443,130.29117 30.975231,117.64531 42.407575,106.2129 55.620475,97.932416 70.812389,92.679474 c 26.231961,-9.070284 54.459321,-7.4682 79.641381,4.520161 30.63119,14.582575 52.6123,43.805345 58.10664,77.249825 1.1236,6.8394 1.22548,8.2827 1.22634,17.37259 8e-4,7.1632 -0.0964,9.67501 -0.48569,12.56167 -1.77368,13.15353 -5.06862,23.82783 -10.89008,35.27958 -9.48116,18.65098 -24.67187,34.22926 -43.22765,44.33055 -16.83628,9.16524 -35.26098,13.36593 -55.10987,12.56462 z"
       style="fill:#264f11;fill-opacity:0;stroke-width:0.26726952" />
    <path
       id="path819"
       d="M 100.07346,296.55847 C 66.902901,295.21936 35.40189,277.15087 17.155452,248.99797 0.52940169,223.34521 -4.1170584,192.1262 4.3098153,162.68954 9.1413567,145.81204 18.329443,130.29117 30.975231,117.64531 42.407575,106.2129 55.620475,97.932416 70.812389,92.679474 c 26.231961,-9.070284 54.459321,-7.4682 79.641381,4.520161 30.63119,14.582575 52.6123,43.805345 58.10664,77.249825 1.1236,6.8394 1.22548,8.2827 1.22634,17.37259 8e-4,7.1632 -0.0964,9.67501 -0.48569,12.56167 -1.77368,13.15353 -5.06862,23.82783 -10.89008,35.27958 -9.48116,18.65098 -24.67187,34.22926 -43.22765,44.33055 -16.83628,9.16524 -35.26098,13.36593 -55.10987,12.56462 z"
       style="fill:#264f11;fill-opacity:0;stroke-width:0.26726952" />
    <path
       id="path821"
       d="M 100.07346,296.55847 C 66.902901,295.21936 35.40189,277.15087 17.155452,248.99797 0.52940169,223.34521 -4.1170584,192.1262 4.3098153,162.68954 9.1413567,145.81204 18.329443,130.29117 30.975231,117.64531 42.407575,106.2129 55.620475,97.932416 70.812389,92.679474 c 26.231961,-9.070284 54.459321,-7.4682 79.641381,4.520161 30.63119,14.582575 52.6123,43.805345 58.10664,77.249825 1.1236,6.8394 1.22548,8.2827 1.22634,17.37259 8e-4,7.1632 -0.0964,9.67501 -0.48569,12.56167 -1.77368,13.15353 -5.06862,23.82783 -10.89008,35.27958 -9.48116,18.65098 -24.67187,34.22926 -43.22765,44.33055 -16.83628,9.16524 -35.26098,13.36593 -55.10987,12.56462 z"
       style="fill:#264f11;fill-opacity:0;stroke-width:0.26726952" />
    <path
       id="path823"
       d="M 100.07346,296.55847 C 66.902901,295.21936 35.40189,277.15087 17.155452,248.99797 0.52940169,223.34521 -4.1170584,192.1262 4.3098153,162.68954 9.1413567,145.81204 18.329443,130.29117 30.975231,117.64531 42.407575,106.2129 55.620475,97.932416 70.812389,92.679474 c 26.231961,-9.070284 54.459321,-7.4682 79.641381,4.520161 30.63119,14.582575 52.6123,43.805345 58.10664,77.249825 1.1236,6.8394 1.22548,8.2827 1.22634,17.37259 8e-4,7.1632 -0.0964,9.67501 -0.48569,12.56167 -1.77368,13.15353 -5.06862,23.82783 -10.89008,35.27958 -9.48116,18.65098 -24.67187,34.22926 -43.22765,44.33055 -16.83628,9.16524 -35.26098,13.36593 -55.10987,12.56462 z"
       style="fill:#264f11;fill-opacity:0;stroke-width:0.26726952" />
    <path
       id="path825"
       d="M 100.07346,296.55847 C 66.902901,295.21936 35.40189,277.15087 17.155452,248.99797 0.52940169,223.34521 -4.1170584,192.1262 4.3098153,162.68954 9.1413567,145.81204 18.329443,130.29117 30.975231,117.64531 42.407575,106.2129 55.620475,97.932416 70.812389,92.679474 c 26.231961,-9.070284 54.459321,-7.4682 79.641381,4.520161 30.63119,14.582575 52.6123,43.805345 58.10664,77.249825 1.1236,6.8394 1.22548,8.2827 1.22634,17.37259 8e-4,7.1632 -0.0964,9.67501 -0.48569,12.56167 -1.77368,13.15353 -5.06862,23.82783 -10.89008,35.27958 -9.48116,18.65098 -24.67187,34.22926 -43.22765,44.33055 -16.83628,9.16524 -35.26098,13.36593 -55.10987,12.56462 z"
       style="fill:#264f11;fill-opacity:0;stroke-width:0.26726952" />
    <path
       id="path827"
       d="M 100.07346,296.55847 C 66.902901,295.21936 35.40189,277.15087 17.155452,248.99797 0.52940169,223.34521 -4.1170584,192.1262 4.3098153,162.68954 9.1413567,145.81204 18.329443,130.29117 30.975231,117.64531 42.407575,106.2129 55.620475,97.932416 70.812389,92.679474 c 26.231961,-9.070284 54.459321,-7.4682 79.641381,4.520161 30.63119,14.582575 52.6123,43.805345 58.10664,77.249825 1.1236,6.8394 1.22548,8.2827 1.22634,17.37259 8e-4,7.1632 -0.0964,9.67501 -0.48569,12.56167 -1.77368,13.15353 -5.06862,23.82783 -10.89008,35.27958 -9.48116,18.65098 -24.67187,34.22926 -43.22765,44.33055 -16.83628,9.16524 -35.26098,13.36593 -55.10987,12.56462 z"
       style="fill:#264f11;fill-opacity:0;stroke-width:0.26726952" />
    <path
       id="path829"
       d="M 100.07346,296.55847 C 66.902901,295.21936 35.40189,277.15087 17.155452,248.99797 0.52940169,223.34521 -4.1170584,192.1262 4.3098153,162.68954 9.1413567,145.81204 18.329443,130.29117 30.975231,117.64531 42.407575,106.2129 55.620475,97.932416 70.812389,92.679474 c 26.231961,-9.070284 54.459321,-7.4682 79.641381,4.520161 30.63119,14.582575 52.6123,43.805345 58.10664,77.249825 1.1236,6.8394 1.22548,8.2827 1.22634,17.37259 8e-4,7.1632 -0.0964,9.67501 -0.48569,12.56167 -1.77368,13.15353 -5.06862,23.82783 -10.89008,35.27958 -9.48116,18.65098 -24.67187,34.22926 -43.22765,44.33055 -16.83628,9.16524 -35.26098,13.36593 -55.10987,12.56462 z"
       style="fill:#264f11;fill-opacity:0;stroke-width:0.26726952" />
    <path
       id="path831"
       d="M 100.07346,296.55847 C 66.902901,295.21936 35.40189,277.15087 17.155452,248.99797 0.52940169,223.34521 -4.1170584,192.1262 4.3098153,162.68954 9.1413567,145.81204 18.329443,130.29117 30.975231,117.64531 42.407575,106.2129 55.620475,97.932416 70.812389,92.679474 c 26.231961,-9.070284 54.459321,-7.4682 79.641381,4.520161 30.63119,14.582575 52.6123,43.805345 58.10664,77.249825 1.1236,6.8394 1.22548,8.2827 1.22634,17.37259 8e-4,7.1632 -0.0964,9.67501 -0.48569,12.56167 -1.77368,13.15353 -5.06862,23.82783 -10.89008,35.27958 -9.48116,18.65098 -24.67187,34.22926 -43.22765,44.33055 -16.83628,9.16524 -35.26098,13.36593 -55.10987,12.56462 z"
       style="fill:#264f11;fill-opacity:0;stroke-width:0.26726952" />
    <path
       id="path833"
       d="M 100.07346,296.55847 C 66.902901,295.21936 35.40189,277.15087 17.155452,248.99797 0.52940169,223.34521 -4.1170584,192.1262 4.3098153,162.68954 9.1413567,145.81204 18.329443,130.29117 30.975231,117.64531 42.407575,106.2129 55.620475,97.932416 70.812389,92.679474 c 26.231961,-9.070284 54.459321,-7.4682 79.641381,4.520161 30.63119,14.582575 52.6123,43.805345 58.10664,77.249825 1.1236,6.8394 1.22548,8.2827 1.22634,17.37259 8e-4,7.1632 -0.0964,9.67501 -0.48569,12.56167 -1.77368,13.15353 -5.06862,23.82783 -10.89008,35.27958 -9.48116,18.65098 -24.67187,34.22926 -43.22765,44.33055 -16.83628,9.16524 -35.26098,13.36593 -55.10987,12.56462 z"
       style="fill:#264f11;fill-opacity:0;stroke-width:0.26726952" />
    <path
       id="path835"
       d="M 100.07346,296.55847 C 66.902901,295.21936 35.40189,277.15087 17.155452,248.99797 0.52940169,223.34521 -4.1170584,192.1262 4.3098153,162.68954 9.1413567,145.81204 18.329443,130.29117 30.975231,117.64531 42.407575,106.2129 55.620475,97.932416 70.812389,92.679474 c 26.231961,-9.070284 54.459321,-7.4682 79.641381,4.520161 30.63119,14.582575 52.6123,43.805345 58.10664,77.249825 1.1236,6.8394 1.22548,8.2827 1.22634,17.37259 8e-4,7.1632 -0.0964,9.67501 -0.48569,12.56167 -1.77368,13.15353 -5.06862,23.82783 -10.89008,35.27958 -9.48116,18.65098 -24.67187,34.22926 -43.22765,44.33055 -16.83628,9.16524 -35.26098,13.36593 -55.10987,12.56462 z"
       style="fill:#264f11;fill-opacity:0;stroke-width:0.26726952" />
    <path
       id="path837"
       d="M 100.07346,296.55847 C 66.902901,295.21936 35.40189,277.15087 17.155452,248.99797 0.52940169,223.34521 -4.1170584,192.1262 4.3098153,162.68954 9.1413567,145.81204 18.329443,130.29117 30.975231,117.64531 42.407575,106.2129 55.620475,97.932416 70.812389,92.679474 c 26.231961,-9.070284 54.459321,-7.4682 79.641381,4.520161 30.63119,14.582575 52.6123,43.805345 58.10664,77.249825 1.1236,6.8394 1.22548,8.2827 1.22634,17.37259 8e-4,7.1632 -0.0964,9.67501 -0.48569,12.56167 -1.77368,13.15353 -5.06862,23.82783 -10.89008,35.27958 -9.48116,18.65098 -24.67187,34.22926 -43.22765,44.33055 -16.83628,9.16524 -35.26098,13.36593 -55.10987,12.56462 z"
       style="fill:#264f11;fill-opacity:0;stroke-width:0.26726952" />
    <path
       id="path839"
       d="M 100.07346,296.55847 C 66.902901,295.21936 35.40189,277.15087 17.155452,248.99797 0.52940169,223.34521 -4.1170584,192.1262 4.3098153,162.68954 9.1413567,145.81204 18.329443,130.29117 30.975231,117.64531 42.407575,106.2129 55.620475,97.932416 70.812389,92.679474 c 26.231961,-9.070284 54.459321,-7.4682 79.641381,4.520161 30.63119,14.582575 52.6123,43.805345 58.10664,77.249825 1.1236,6.8394 1.22548,8.2827 1.22634,17.37259 8e-4,7.1632 -0.0964,9.67501 -0.48569,12.56167 -1.77368,13.15353 -5.06862,23.82783 -10.89008,35.27958 -9.48116,18.65098 -24.67187,34.22926 -43.22765,44.33055 -16.83628,9.16524 -35.26098,13.36593 -55.10987,12.56462 z"
       style="fill:#264f11;fill-opacity:0;stroke-width:0.26726952" />
    <text
       id="text843"
       y="263.77979"
       x="36.360664"
       style="font-style:normal;font-weight:normal;font-size:237.08360291px;line-height:1.25;font-family:sans-serif;letter-spacing:0px;word-spacing:0px;fill:#000000;fill-opacity:1;stroke:none;stroke-width:5.92708921"
       xml:space="preserve"><tspan
         style="font-style:normal;font-variant:normal;font-weight:bold;font-stretch:normal;font-size:237.08477783px;font-family:'Courier New';-inkscape-font-specification:'Courier New, Bold';font-variant-ligatures:normal;font-variant-caps:normal;font-variant-numeric:normal;font-feature-settings:normal;text-align:start;writing-mode:lr-tb;text-anchor:start;stroke-width:5.92708921"
         y="263.77979"
         x="36.360664"
         id="tspan841">P</tspan></text>
  </g>
</svg>
